<?xml version="1.0" encoding="utf-8"?>
<!-- Icon based on the 2018 “Progress” Pride flag BY-NC-SA Daniel Quasar http://creativecommons.org/licenses/by-nc-sa/4.0/ -->
<!-- This version by David Jones (https://david.omg.lol) -->
<svg xmlns="http://www.w3.org/2000/svg" width="180" height="180" viewBox="0 0 30 30">
  <mask id="mask">
    <rect width="30" height="30" rx="2" fill="white" />
  </mask>
  <g mask="url(#mask)">
    <!-- violet -->
    <path d="m0,0 l30,0 0,30 -30,0 z" fill="#750787" />
    <!-- blue -->
    <path d="m0,0 l30,0 0,25 -30,0 z" fill="#004dff" />
    <!-- green -->
    <path d="m0,0 l30,0 0,20 -30,0 z" fill="#008026" />
    <!-- yellow -->
    <path d="m0,0 l30,0 0,15 -30,0 z" fill="#ffed00" />
    <!-- orange -->
    <path d="m0,0 l30,0 0,10 -30,0 z" fill="#ff8c00" />
    <!-- red -->
    <path d="m0,0 l30,0 0,5 -30,0 z" fill="#e40303" />
    <!-- black -->
    <path d="m0,0 l6,0 15,15 -15,15 -6,0 z" fill="#000000" />
    <!-- brown -->
    <path d="m0,0 l2,0 15,15 -15,15 -2,0 z" fill="#613915" />
    <!-- light blue -->
    <path d="m0,2 l13,13 -13,13 z" fill="#74d7ee" />
    <!-- pink -->
    <path d="m0,6 l9,9 -9,9 z" fill="#ffafc8" />
    <!-- white -->
    <path d="m0,10 l5,5 -5,5 z" fill="#ffffff" />
  </g>
</svg>
