<?xml version="1.0" encoding="utf-8"?>
<svg xmlns="http://www.w3.org/2000/svg" viewBox="0 0 30 30">
  <mask id="rounded">
    <rect width="30" height="30" rx="5" fill="#fff" />
  </mask>
  <g mask="url(#rounded)">
    <path d="M0,0H30V30H0Z" fill="#750787" />
    <path d="M0,0H30V25H0Z" fill="#004dff" />
    <path d="M0,0H30V20H0Z" fill="#008026" />
    <path d="M0,0H30V15H0Z" fill="#ffed00" />
    <path d="M0,0H30V10H0Z" fill="#ff8c00" />
    <path d="M0,0H30V5H0Z" fill="#e40303" />
    <path d="m0,0h6l15,15-15,15h-6z" fill="#000" />
    <path d="m0,0h2l15,15-15,15h-2z" fill="#613915" />
    <path d="m0,2l13,13-13,13z" fill="#74d7ee" />
    <path d="m0,6l9,9-9,9z" fill="#ffafc8" />
    <path d="m0,10l5,5-5,5z" fill="#fff" />
  </g>
</svg>
