<svg xmlns="http://www.w3.org/2000/svg" viewBox="0 0 24 24"><mask id="a"><path fill="#fff" d="M4 0Q0 0 0 4v16q0 4 4 4h16q4 0 4-4V4q0-4-4-4z"/></mask><g mask="url(#a)"><path fill="#e51e25" d="M24 0H0v24h24Z"/><path fill="#f68c1e" d="M24 4H0v20h24Z"/><path fill="#f9ee13" d="M24 8H0v16h24Z"/><path fill="#0d8040" d="M24 12H0v12h24Z"/><path fill="#3e5fac" d="M24 16H0v8h24Z"/><path fill="#732a85" d="M24 20H0v4h24Z"/><path d="M15 12 3 0H0v24h3Z"/><path fill="#613915" d="M12 12 0 0v24Z"/><path fill="#74d7ee" d="M9 12 0 3v18Z"/><path fill="#ffafc8" d="M6 12 0 6v12Z"/><path fill="#fff" d="M3 12 0 9v6Z"/></g></svg>