<svg xmlns="http://www.w3.org/2000/svg" width="30" height="30"><mask id="a"><rect width="30" height="30" rx="5" fill="#fff"/></mask><g mask="url(#a)"><path d="M0 0h30v30H0Z" fill="#750787"/><path d="M0 0h30v25H0Z" fill="#004dff"/><path d="M0 0h30v20H0Z" fill="#008026"/><path d="M0 0h30v15H0Z" fill="#ffed00"/><path d="M0 0h30v10H0Z" fill="#ff8c00"/><path d="M0 0h30v5H0Z" fill="#e40303"/><path d="M0 0h6l15 15L6 30H0z"/><path d="M0 0h2l15 15L2 30H0z" fill="#613915"/><path d="m0 2 13 13L0 28z" fill="#74d7ee"/><path d="m0 6 9 9-9 9z" fill="#ffafc8"/><path d="m0 10 5 5-5 5z" fill="#fff"/></g></svg>