<svg xmlns="http://www.w3.org/2000/svg" viewBox="0 0 24 24">
  <mask id="mask">
    <!-- approximate squircle -->
    <path fill="#ffffff" d="
      m 4 0
      q -4 0 -4 4
      v 16
      q 0 4 4 4
      h 16
      q 4 0 4 -4
      v -16
      q 0 -4 -4 -4
      z" />
  </mask>

  <g mask="url(#mask)">
    <!-- https://www.flagcolorcodes.com/progress-pride -->
    <path fill="#e51e25" d="
      M 24 0
      H 0
      V 24
      H 24
      Z" />
    <path fill="#f68c1e" d="
      M 24 4
      H 0
      V 24
      H 24
      Z" />
    <path fill="#f9ee13" d="
      M 24 8
      H 0
      V 24
      H 24
      Z" />
    <path fill="#0d8040" d="
      M 24 12
      H 0
      V 24
      H 24
      Z" />
    <path fill="#3e5fac" d="
      M 24 16
      H 0
      V 24
      H 24
      Z" />
    <path fill="#732a85" d="
      M 24 20
      H 0
      V 24
      H 24
      Z" />

    <path fill="#000000" d="
      M 15 12
        3 0
      H 0
      v 24
      H 3
      Z" />
    <path fill="#613915" d="
      M 12 12
        0 0
      v 24
      Z" />
    <path fill="#74d7ee" d="
      M 9 12
        0 3
      v 18
      Z" />
    <path fill="#ffafc8" d="
      M 6 12
        0 6
      v 12
      Z" />
    <path fill="#ffffff" d="
      M 3 12
        0 9
      v 6
      Z" />
  </g>
</svg>
